%TF.GenerationSoftware,KiCad,Pcbnew,(6.0.0)*%
%TF.CreationDate,2022-01-15T19:35:22+01:00*%
%TF.ProjectId,zenquito,7a656e71-7569-4746-9f2e-6b696361645f,1*%
%TF.SameCoordinates,Original*%
%TF.FileFunction,Soldermask,Bot*%
%TF.FilePolarity,Negative*%
%FSLAX46Y46*%
G04 Gerber Fmt 4.6, Leading zero omitted, Abs format (unit mm)*
G04 Created by KiCad (PCBNEW (6.0.0)) date 2022-01-15 19:35:22*
%MOMM*%
%LPD*%
G01*
G04 APERTURE LIST*
G04 Aperture macros list*
%AMRoundRect*
0 Rectangle with rounded corners*
0 $1 Rounding radius*
0 $2 $3 $4 $5 $6 $7 $8 $9 X,Y pos of 4 corners*
0 Add a 4 corners polygon primitive as box body*
4,1,4,$2,$3,$4,$5,$6,$7,$8,$9,$2,$3,0*
0 Add four circle primitives for the rounded corners*
1,1,$1+$1,$2,$3*
1,1,$1+$1,$4,$5*
1,1,$1+$1,$6,$7*
1,1,$1+$1,$8,$9*
0 Add four rect primitives between the rounded corners*
20,1,$1+$1,$2,$3,$4,$5,0*
20,1,$1+$1,$4,$5,$6,$7,0*
20,1,$1+$1,$6,$7,$8,$9,0*
20,1,$1+$1,$8,$9,$2,$3,0*%
G04 Aperture macros list end*
%ADD10RoundRect,0.250001X-0.799999X-0.799999X0.799999X-0.799999X0.799999X0.799999X-0.799999X0.799999X0*%
%ADD11O,1.200000X1.600000*%
%ADD12O,1.200000X1.200000*%
%ADD13R,2.500000X4.500000*%
%ADD14O,2.500000X4.500000*%
%ADD15C,2.400000*%
%ADD16O,2.400000X2.400000*%
%ADD17C,1.440000*%
%ADD18R,1.500000X1.500000*%
%ADD19C,1.500000*%
%ADD20R,1.600000X1.600000*%
%ADD21C,1.600000*%
%ADD22RoundRect,0.249999X-1.950001X-1.950001X1.950001X-1.950001X1.950001X1.950001X-1.950001X1.950001X0*%
G04 APERTURE END LIST*
D10*
%TO.C,J4*%
X90000000Y-97000000D03*
%TD*%
%TO.C,J5*%
X90000000Y-102500000D03*
%TD*%
D11*
%TO.C,Q3*%
X73000000Y-82500000D03*
D12*
X75540000Y-79960000D03*
X73000000Y-77420000D03*
%TD*%
D11*
%TO.C,Q4*%
X126460000Y-82500000D03*
D12*
X129000000Y-79960000D03*
X126460000Y-77420000D03*
%TD*%
D13*
%TO.C,Q5*%
X60000000Y-60000000D03*
D14*
X65450000Y-60000000D03*
X70900000Y-60000000D03*
%TD*%
D13*
%TO.C,Q6*%
X109100000Y-60000000D03*
D14*
X114550000Y-60000000D03*
X120000000Y-60000000D03*
%TD*%
D13*
%TO.C,Q8*%
X129100000Y-60000000D03*
D14*
X134550000Y-60000000D03*
X140000000Y-60000000D03*
%TD*%
D15*
%TO.C,R1*%
X95000000Y-90000000D03*
D16*
X95000000Y-102700000D03*
%TD*%
D15*
%TO.C,R3*%
X114300000Y-97000000D03*
D16*
X127000000Y-97000000D03*
%TD*%
D15*
%TO.C,R4*%
X53300000Y-90000000D03*
D16*
X66000000Y-90000000D03*
%TD*%
D15*
%TO.C,R5*%
X134300000Y-90000000D03*
D16*
X147000000Y-90000000D03*
%TD*%
D15*
%TO.C,R8*%
X106000000Y-90000000D03*
D16*
X106000000Y-102700000D03*
%TD*%
D15*
%TO.C,R10*%
X81300000Y-80000000D03*
D16*
X94000000Y-80000000D03*
%TD*%
D15*
%TO.C,R11*%
X106000000Y-80000000D03*
D16*
X118700000Y-80000000D03*
%TD*%
D15*
%TO.C,R12*%
X134300000Y-80000000D03*
D16*
X147000000Y-80000000D03*
%TD*%
D15*
%TO.C,R14*%
X109000000Y-70000000D03*
D16*
X121700000Y-70000000D03*
%TD*%
D17*
%TO.C,RV2*%
X112920000Y-90000000D03*
X115460000Y-90000000D03*
X118000000Y-90000000D03*
%TD*%
D15*
%TO.C,R7*%
X100000000Y-90000000D03*
D16*
X100000000Y-102700000D03*
%TD*%
D18*
%TO.C,Q1*%
X75540000Y-90000000D03*
D19*
X73000000Y-90000000D03*
X70460000Y-90000000D03*
%TD*%
D15*
%TO.C,R2*%
X73000000Y-97000000D03*
D16*
X85700000Y-97000000D03*
%TD*%
D15*
%TO.C,R9*%
X53000000Y-80000000D03*
D16*
X65700000Y-80000000D03*
%TD*%
D20*
%TO.C,C2*%
X145000000Y-102000000D03*
D21*
X145000000Y-97000000D03*
%TD*%
%TO.C,C3*%
X62000000Y-97000000D03*
X62000000Y-102000000D03*
%TD*%
D17*
%TO.C,RV1*%
X82000000Y-90000000D03*
X84540000Y-90000000D03*
X87080000Y-90000000D03*
%TD*%
D18*
%TO.C,Q2*%
X124460000Y-90000000D03*
D19*
X127000000Y-90000000D03*
X129540000Y-90000000D03*
%TD*%
D22*
%TO.C,J3*%
X146500000Y-70000000D03*
%TD*%
%TO.C,J6*%
X100000000Y-60000000D03*
%TD*%
D15*
%TO.C,R13*%
X60000000Y-70000000D03*
D16*
X72700000Y-70000000D03*
%TD*%
D15*
%TO.C,R16*%
X127300000Y-70000000D03*
D16*
X140000000Y-70000000D03*
%TD*%
D15*
%TO.C,R15*%
X80000000Y-70000000D03*
D16*
X92700000Y-70000000D03*
%TD*%
D13*
%TO.C,Q7*%
X80000000Y-60000000D03*
D14*
X85450000Y-60000000D03*
X90900000Y-60000000D03*
%TD*%
D21*
%TO.C,C5*%
X68000000Y-102000000D03*
X68000000Y-97000000D03*
%TD*%
D22*
%TO.C,J2*%
X113000000Y-104000000D03*
%TD*%
%TO.C,J1*%
X53500000Y-70000000D03*
%TD*%
D21*
%TO.C,C6*%
X132000000Y-97000000D03*
X132000000Y-102000000D03*
%TD*%
D20*
%TO.C,C1*%
X55000000Y-97000000D03*
D21*
X55000000Y-102000000D03*
%TD*%
%TO.C,C4*%
X138000000Y-102000000D03*
X138000000Y-97000000D03*
%TD*%
D15*
%TO.C,R6*%
X100000000Y-67300000D03*
D16*
X100000000Y-80000000D03*
%TD*%
M02*
