M48
; DRILL file {KiCad (6.0.0)} date Sat Jan 15 19:35:29 2022
; FORMAT={-:-/ absolute / metric / decimal}
; #@! TF.CreationDate,2022-01-15T19:35:29+01:00
; #@! TF.GenerationSoftware,Kicad,Pcbnew,(6.0.0)
; #@! TF.FileFunction,Plated,1,2,PTH
FMAT,2
METRIC
; #@! TA.AperFunction,Plated,PTH,ComponentDrill
T1C0.700
; #@! TA.AperFunction,Plated,PTH,ComponentDrill
T2C0.800
; #@! TA.AperFunction,Plated,PTH,ComponentDrill
T3C1.100
; #@! TA.AperFunction,Plated,PTH,ComponentDrill
T4C1.200
; #@! TA.AperFunction,Plated,PTH,ComponentDrill
T5C1.500
; #@! TA.AperFunction,Plated,PTH,ComponentDrill
T6C3.000
%
G90
G05
T1
X73.0Y-77.42
X73.0Y-82.5
X75.54Y-79.96
X126.46Y-77.42
X126.46Y-82.5
X129.0Y-79.96
T2
X55.0Y-97.0
X55.0Y-102.0
X62.0Y-97.0
X62.0Y-102.0
X68.0Y-97.0
X68.0Y-102.0
X70.46Y-90.0
X73.0Y-90.0
X75.54Y-90.0
X82.0Y-90.0
X84.54Y-90.0
X87.08Y-90.0
X112.92Y-90.0
X115.46Y-90.0
X118.0Y-90.0
X124.46Y-90.0
X127.0Y-90.0
X129.54Y-90.0
X132.0Y-97.0
X132.0Y-102.0
X138.0Y-97.0
X138.0Y-102.0
X145.0Y-97.0
X145.0Y-102.0
T3
X90.0Y-97.0
X90.0Y-102.5
T4
X53.0Y-80.0
X53.3Y-90.0
X60.0Y-70.0
X65.7Y-80.0
X66.0Y-90.0
X72.7Y-70.0
X73.0Y-97.0
X80.0Y-70.0
X81.3Y-80.0
X85.7Y-97.0
X92.7Y-70.0
X94.0Y-80.0
X95.0Y-90.0
X95.0Y-102.7
X100.0Y-67.3
X100.0Y-80.0
X100.0Y-90.0
X100.0Y-102.7
X106.0Y-80.0
X106.0Y-90.0
X106.0Y-102.7
X109.0Y-70.0
X114.3Y-97.0
X118.7Y-80.0
X121.7Y-70.0
X127.0Y-97.0
X127.3Y-70.0
X134.3Y-80.0
X134.3Y-90.0
X140.0Y-70.0
X147.0Y-80.0
X147.0Y-90.0
T5
X60.0Y-60.0
X65.45Y-60.0
X70.9Y-60.0
X80.0Y-60.0
X85.45Y-60.0
X90.9Y-60.0
X109.1Y-60.0
X114.55Y-60.0
X120.0Y-60.0
X129.1Y-60.0
X134.55Y-60.0
X140.0Y-60.0
T6
X53.5Y-70.0
X100.0Y-60.0
X113.0Y-104.0
X146.5Y-70.0
T0
M30
