%TF.GenerationSoftware,KiCad,Pcbnew,(6.0.0)*%
%TF.CreationDate,2022-01-15T19:35:22+01:00*%
%TF.ProjectId,zenquito,7a656e71-7569-4746-9f2e-6b696361645f,1*%
%TF.SameCoordinates,Original*%
%TF.FileFunction,Copper,L2,Bot*%
%TF.FilePolarity,Positive*%
%FSLAX46Y46*%
G04 Gerber Fmt 4.6, Leading zero omitted, Abs format (unit mm)*
G04 Created by KiCad (PCBNEW (6.0.0)) date 2022-01-15 19:35:22*
%MOMM*%
%LPD*%
G01*
G04 APERTURE LIST*
G04 Aperture macros list*
%AMRoundRect*
0 Rectangle with rounded corners*
0 $1 Rounding radius*
0 $2 $3 $4 $5 $6 $7 $8 $9 X,Y pos of 4 corners*
0 Add a 4 corners polygon primitive as box body*
4,1,4,$2,$3,$4,$5,$6,$7,$8,$9,$2,$3,0*
0 Add four circle primitives for the rounded corners*
1,1,$1+$1,$2,$3*
1,1,$1+$1,$4,$5*
1,1,$1+$1,$6,$7*
1,1,$1+$1,$8,$9*
0 Add four rect primitives between the rounded corners*
20,1,$1+$1,$2,$3,$4,$5,0*
20,1,$1+$1,$4,$5,$6,$7,0*
20,1,$1+$1,$6,$7,$8,$9,0*
20,1,$1+$1,$8,$9,$2,$3,0*%
G04 Aperture macros list end*
%TA.AperFunction,ComponentPad*%
%ADD10RoundRect,0.250001X-0.799999X-0.799999X0.799999X-0.799999X0.799999X0.799999X-0.799999X0.799999X0*%
%TD*%
%TA.AperFunction,ComponentPad*%
%ADD11O,1.200000X1.600000*%
%TD*%
%TA.AperFunction,ComponentPad*%
%ADD12O,1.200000X1.200000*%
%TD*%
%TA.AperFunction,ComponentPad*%
%ADD13R,2.500000X4.500000*%
%TD*%
%TA.AperFunction,ComponentPad*%
%ADD14O,2.500000X4.500000*%
%TD*%
%TA.AperFunction,ComponentPad*%
%ADD15C,2.400000*%
%TD*%
%TA.AperFunction,ComponentPad*%
%ADD16O,2.400000X2.400000*%
%TD*%
%TA.AperFunction,ComponentPad*%
%ADD17C,1.440000*%
%TD*%
%TA.AperFunction,ComponentPad*%
%ADD18R,1.500000X1.500000*%
%TD*%
%TA.AperFunction,ComponentPad*%
%ADD19C,1.500000*%
%TD*%
%TA.AperFunction,ComponentPad*%
%ADD20R,1.600000X1.600000*%
%TD*%
%TA.AperFunction,ComponentPad*%
%ADD21C,1.600000*%
%TD*%
%TA.AperFunction,ComponentPad*%
%ADD22RoundRect,0.249999X-1.950001X-1.950001X1.950001X-1.950001X1.950001X1.950001X-1.950001X1.950001X0*%
%TD*%
%TA.AperFunction,Conductor*%
%ADD23C,0.500000*%
%TD*%
G04 APERTURE END LIST*
D10*
%TO.P,J4,1*%
%TO.N,Net-(J4-Pad1)*%
X90000000Y-97000000D03*
%TD*%
%TO.P,J5,1*%
%TO.N,GND*%
X90000000Y-102500000D03*
%TD*%
D11*
%TO.P,Q3,1*%
%TO.N,Net-(Q1-Pad3)*%
X73000000Y-82500000D03*
D12*
%TO.P,Q3,2*%
%TO.N,Net-(Q3-Pad2)*%
X75540000Y-79960000D03*
%TO.P,Q3,3*%
%TO.N,Net-(Q3-Pad3)*%
X73000000Y-77420000D03*
%TD*%
D11*
%TO.P,Q4,1*%
%TO.N,Net-(Q2-Pad3)*%
X126460000Y-82500000D03*
D12*
%TO.P,Q4,2*%
%TO.N,Net-(Q4-Pad2)*%
X129000000Y-79960000D03*
%TO.P,Q4,3*%
%TO.N,Net-(Q4-Pad3)*%
X126460000Y-77420000D03*
%TD*%
D13*
%TO.P,Q5,1*%
%TO.N,Net-(Q5-Pad1)*%
X60000000Y-60000000D03*
D14*
%TO.P,Q5,2*%
%TO.N,/OUT*%
X65450000Y-60000000D03*
%TO.P,Q5,3*%
%TO.N,+VDC*%
X70900000Y-60000000D03*
%TD*%
D13*
%TO.P,Q6,1*%
%TO.N,Net-(Q6-Pad1)*%
X109100000Y-60000000D03*
D14*
%TO.P,Q6,2*%
%TO.N,-VDC*%
X114550000Y-60000000D03*
%TO.P,Q6,3*%
%TO.N,/OUT*%
X120000000Y-60000000D03*
%TD*%
D13*
%TO.P,Q8,1*%
%TO.N,Net-(Q8-Pad1)*%
X129100000Y-60000000D03*
D14*
%TO.P,Q8,2*%
%TO.N,-VDC*%
X134550000Y-60000000D03*
%TO.P,Q8,3*%
%TO.N,/OUT*%
X140000000Y-60000000D03*
%TD*%
D15*
%TO.P,R1,1*%
%TO.N,Net-(J4-Pad1)*%
X95000000Y-90000000D03*
D16*
%TO.P,R1,2*%
%TO.N,GND*%
X95000000Y-102700000D03*
%TD*%
D15*
%TO.P,R3,1*%
%TO.N,Net-(J4-Pad1)*%
X114300000Y-97000000D03*
D16*
%TO.P,R3,2*%
%TO.N,Net-(C6-Pad1)*%
X127000000Y-97000000D03*
%TD*%
D15*
%TO.P,R4,1*%
%TO.N,+VDC*%
X53300000Y-90000000D03*
D16*
%TO.P,R4,2*%
%TO.N,Net-(Q1-Pad3)*%
X66000000Y-90000000D03*
%TD*%
D15*
%TO.P,R5,1*%
%TO.N,Net-(Q2-Pad3)*%
X134300000Y-90000000D03*
D16*
%TO.P,R5,2*%
%TO.N,-VDC*%
X147000000Y-90000000D03*
%TD*%
D15*
%TO.P,R8,1*%
%TO.N,Net-(R10-Pad2)*%
X106000000Y-90000000D03*
D16*
%TO.P,R8,2*%
%TO.N,GND*%
X106000000Y-102700000D03*
%TD*%
D15*
%TO.P,R10,1*%
%TO.N,Net-(Q3-Pad2)*%
X81300000Y-80000000D03*
D16*
%TO.P,R10,2*%
%TO.N,Net-(R10-Pad2)*%
X94000000Y-80000000D03*
%TD*%
D15*
%TO.P,R11,1*%
%TO.N,Net-(R10-Pad2)*%
X106000000Y-80000000D03*
D16*
%TO.P,R11,2*%
%TO.N,Net-(Q4-Pad2)*%
X118700000Y-80000000D03*
%TD*%
D15*
%TO.P,R12,1*%
%TO.N,Net-(Q4-Pad3)*%
X134300000Y-80000000D03*
D16*
%TO.P,R12,2*%
%TO.N,-VDC*%
X147000000Y-80000000D03*
%TD*%
D15*
%TO.P,R14,1*%
%TO.N,Net-(Q6-Pad1)*%
X109000000Y-70000000D03*
D16*
%TO.P,R14,2*%
%TO.N,Net-(Q4-Pad2)*%
X121700000Y-70000000D03*
%TD*%
D17*
%TO.P,RV2,1*%
%TO.N,Net-(R6-Pad2)*%
X112920000Y-90000000D03*
%TO.P,RV2,2*%
%TO.N,Net-(Q2-Pad1)*%
X115460000Y-90000000D03*
%TO.P,RV2,3*%
X118000000Y-90000000D03*
%TD*%
D15*
%TO.P,R7,1*%
%TO.N,Net-(R6-Pad2)*%
X100000000Y-90000000D03*
D16*
%TO.P,R7,2*%
%TO.N,GND*%
X100000000Y-102700000D03*
%TD*%
D18*
%TO.P,Q1,1*%
%TO.N,Net-(Q1-Pad1)*%
X75540000Y-90000000D03*
D19*
%TO.P,Q1,2*%
%TO.N,Net-(C5-Pad2)*%
X73000000Y-90000000D03*
%TO.P,Q1,3*%
%TO.N,Net-(Q1-Pad3)*%
X70460000Y-90000000D03*
%TD*%
D15*
%TO.P,R2,1*%
%TO.N,Net-(C5-Pad2)*%
X73000000Y-97000000D03*
D16*
%TO.P,R2,2*%
%TO.N,Net-(J4-Pad1)*%
X85700000Y-97000000D03*
%TD*%
D15*
%TO.P,R9,1*%
%TO.N,+VDC*%
X53000000Y-80000000D03*
D16*
%TO.P,R9,2*%
%TO.N,Net-(Q3-Pad3)*%
X65700000Y-80000000D03*
%TD*%
D20*
%TO.P,C2,1*%
%TO.N,GND*%
X145000000Y-102000000D03*
D21*
%TO.P,C2,2*%
%TO.N,-VDC*%
X145000000Y-97000000D03*
%TD*%
%TO.P,C3,1*%
%TO.N,+VDC*%
X62000000Y-97000000D03*
%TO.P,C3,2*%
%TO.N,GND*%
X62000000Y-102000000D03*
%TD*%
D17*
%TO.P,RV1,1*%
%TO.N,Net-(Q1-Pad1)*%
X82000000Y-90000000D03*
%TO.P,RV1,2*%
X84540000Y-90000000D03*
%TO.P,RV1,3*%
%TO.N,Net-(R6-Pad2)*%
X87080000Y-90000000D03*
%TD*%
D18*
%TO.P,Q2,1*%
%TO.N,Net-(Q2-Pad1)*%
X124460000Y-90000000D03*
D19*
%TO.P,Q2,2*%
%TO.N,Net-(C6-Pad1)*%
X127000000Y-90000000D03*
%TO.P,Q2,3*%
%TO.N,Net-(Q2-Pad3)*%
X129540000Y-90000000D03*
%TD*%
D22*
%TO.P,J3,1*%
%TO.N,-VDC*%
X146500000Y-70000000D03*
%TD*%
%TO.P,J6,1*%
%TO.N,/OUT*%
X100000000Y-60000000D03*
%TD*%
D15*
%TO.P,R13,1*%
%TO.N,Net-(Q5-Pad1)*%
X60000000Y-70000000D03*
D16*
%TO.P,R13,2*%
%TO.N,Net-(Q3-Pad2)*%
X72700000Y-70000000D03*
%TD*%
D15*
%TO.P,R16,1*%
%TO.N,Net-(Q8-Pad1)*%
X127300000Y-70000000D03*
D16*
%TO.P,R16,2*%
%TO.N,Net-(Q4-Pad2)*%
X140000000Y-70000000D03*
%TD*%
D15*
%TO.P,R15,1*%
%TO.N,Net-(Q7-Pad1)*%
X80000000Y-70000000D03*
D16*
%TO.P,R15,2*%
%TO.N,Net-(Q3-Pad2)*%
X92700000Y-70000000D03*
%TD*%
D13*
%TO.P,Q7,1*%
%TO.N,Net-(Q7-Pad1)*%
X80000000Y-60000000D03*
D14*
%TO.P,Q7,2*%
%TO.N,/OUT*%
X85450000Y-60000000D03*
%TO.P,Q7,3*%
%TO.N,+VDC*%
X90900000Y-60000000D03*
%TD*%
D21*
%TO.P,C5,1*%
%TO.N,GND*%
X68000000Y-102000000D03*
%TO.P,C5,2*%
%TO.N,Net-(C5-Pad2)*%
X68000000Y-97000000D03*
%TD*%
D22*
%TO.P,J2,1*%
%TO.N,GND*%
X113000000Y-104000000D03*
%TD*%
%TO.P,J1,1*%
%TO.N,+VDC*%
X53500000Y-70000000D03*
%TD*%
D21*
%TO.P,C6,1*%
%TO.N,Net-(C6-Pad1)*%
X132000000Y-97000000D03*
%TO.P,C6,2*%
%TO.N,GND*%
X132000000Y-102000000D03*
%TD*%
D20*
%TO.P,C1,1*%
%TO.N,+VDC*%
X55000000Y-97000000D03*
D21*
%TO.P,C1,2*%
%TO.N,GND*%
X55000000Y-102000000D03*
%TD*%
%TO.P,C4,1*%
%TO.N,GND*%
X138000000Y-102000000D03*
%TO.P,C4,2*%
%TO.N,-VDC*%
X138000000Y-97000000D03*
%TD*%
D15*
%TO.P,R6,1*%
%TO.N,/OUT*%
X100000000Y-67300000D03*
D16*
%TO.P,R6,2*%
%TO.N,Net-(R6-Pad2)*%
X100000000Y-80000000D03*
%TD*%
D23*
%TO.N,Net-(Q1-Pad1)*%
X82000000Y-90000000D02*
X75540000Y-90000000D01*
X84540000Y-90000000D02*
X82000000Y-90000000D01*
%TO.N,Net-(Q1-Pad3)*%
X70460000Y-90000000D02*
X70460000Y-85040000D01*
X66000000Y-90000000D02*
X70460000Y-90000000D01*
X70460000Y-85040000D02*
X73000000Y-82500000D01*
%TO.N,Net-(Q2-Pad1)*%
X124460000Y-90000000D02*
X118000000Y-90000000D01*
X115460000Y-90000000D02*
X118000000Y-90000000D01*
%TO.N,Net-(Q2-Pad3)*%
X129540000Y-90000000D02*
X134300000Y-90000000D01*
X129540000Y-90000000D02*
X129540000Y-85580000D01*
X129540000Y-85580000D02*
X126460000Y-82500000D01*
%TO.N,Net-(Q3-Pad3)*%
X73000000Y-77420000D02*
X68280000Y-77420000D01*
X68280000Y-77420000D02*
X65700000Y-80000000D01*
%TO.N,Net-(Q3-Pad2)*%
X75580000Y-80000000D02*
X75540000Y-79960000D01*
X75540000Y-79960000D02*
X75540000Y-72840000D01*
X91300000Y-70000000D02*
X92700000Y-70000000D01*
X81300000Y-80000000D02*
X75580000Y-80000000D01*
X75540000Y-72840000D02*
X72700000Y-70000000D01*
X81300000Y-80000000D02*
X91300000Y-70000000D01*
%TO.N,Net-(Q4-Pad3)*%
X131720000Y-77420000D02*
X134300000Y-80000000D01*
X126460000Y-77420000D02*
X131720000Y-77420000D01*
%TO.N,Net-(Q4-Pad2)*%
X137000000Y-73000000D02*
X140000000Y-70000000D01*
X124700000Y-73000000D02*
X137000000Y-73000000D01*
X118700000Y-80000000D02*
X118700000Y-73000000D01*
X118700000Y-73000000D02*
X121700000Y-70000000D01*
X118740000Y-79960000D02*
X118700000Y-80000000D01*
X121700000Y-70000000D02*
X124700000Y-73000000D01*
X129000000Y-79960000D02*
X118740000Y-79960000D01*
%TO.N,/OUT*%
X100000000Y-60000000D02*
X100000000Y-67300000D01*
%TO.N,Net-(Q5-Pad1)*%
X60000000Y-60000000D02*
X60000000Y-70000000D01*
%TO.N,Net-(Q6-Pad1)*%
X109100000Y-69900000D02*
X109000000Y-70000000D01*
X109100000Y-60000000D02*
X109100000Y-69900000D01*
%TO.N,Net-(R6-Pad2)*%
X87080000Y-90000000D02*
X89080000Y-88000000D01*
X98000000Y-88000000D02*
X100000000Y-90000000D01*
X89080000Y-88000000D02*
X98000000Y-88000000D01*
X100000000Y-80000000D02*
X100000000Y-90000000D01*
X102000000Y-92000000D02*
X110920000Y-92000000D01*
X100000000Y-90000000D02*
X102000000Y-92000000D01*
X110920000Y-92000000D02*
X112920000Y-90000000D01*
%TO.N,Net-(R10-Pad2)*%
X104000000Y-78000000D02*
X96000000Y-78000000D01*
X96000000Y-78000000D02*
X94000000Y-80000000D01*
X106000000Y-80000000D02*
X104000000Y-78000000D01*
X106000000Y-80000000D02*
X106000000Y-90000000D01*
%TO.N,Net-(Q7-Pad1)*%
X80000000Y-60000000D02*
X80000000Y-70000000D01*
%TO.N,Net-(Q8-Pad1)*%
X129100000Y-60000000D02*
X129100000Y-68200000D01*
X129100000Y-68200000D02*
X127300000Y-70000000D01*
%TO.N,Net-(J4-Pad1)*%
X95000000Y-90000000D02*
X95000000Y-92000000D01*
X114300000Y-97000000D02*
X85700000Y-97000000D01*
X95000000Y-92000000D02*
X90000000Y-97000000D01*
%TO.N,Net-(C5-Pad2)*%
X73000000Y-90000000D02*
X73000000Y-97000000D01*
X73000000Y-97000000D02*
X68000000Y-97000000D01*
%TO.N,Net-(C6-Pad1)*%
X127000000Y-90000000D02*
X127000000Y-97000000D01*
X127000000Y-97000000D02*
X132000000Y-97000000D01*
%TD*%
%TA.AperFunction,Conductor*%
%TO.N,+VDC*%
G36*
X92943039Y-50519685D02*
G01*
X92988794Y-50572489D01*
X93000000Y-50624000D01*
X93000000Y-62876000D01*
X92980315Y-62943039D01*
X92927511Y-62988794D01*
X92876000Y-63000000D01*
X89124000Y-63000000D01*
X89056961Y-62980315D01*
X89011206Y-62927511D01*
X89000000Y-62876000D01*
X89000000Y-56000000D01*
X73000000Y-56000000D01*
X73000000Y-62876000D01*
X72980315Y-62943039D01*
X72927511Y-62988794D01*
X72876000Y-63000000D01*
X69124000Y-63000000D01*
X69056961Y-62980315D01*
X69011206Y-62927511D01*
X69000000Y-62876000D01*
X69000000Y-56000000D01*
X56500000Y-56000000D01*
X56500000Y-95000000D01*
X63876000Y-95000000D01*
X63943039Y-95019685D01*
X63988794Y-95072489D01*
X64000000Y-95124000D01*
X64000000Y-98376000D01*
X63980315Y-98443039D01*
X63927511Y-98488794D01*
X63876000Y-98500000D01*
X50624000Y-98500000D01*
X50556961Y-98480315D01*
X50511206Y-98427511D01*
X50500000Y-98376000D01*
X50500000Y-50624000D01*
X50519685Y-50556961D01*
X50572489Y-50511206D01*
X50624000Y-50500000D01*
X92876000Y-50500000D01*
X92943039Y-50519685D01*
G37*
%TD.AperFunction*%
%TD*%
%TA.AperFunction,Conductor*%
%TO.N,GND*%
G36*
X149443039Y-100519685D02*
G01*
X149488794Y-100572489D01*
X149500000Y-100624000D01*
X149500000Y-109376000D01*
X149480315Y-109443039D01*
X149427511Y-109488794D01*
X149376000Y-109500000D01*
X50624000Y-109500000D01*
X50556961Y-109480315D01*
X50511206Y-109427511D01*
X50500000Y-109376000D01*
X50500000Y-100624000D01*
X50519685Y-100556961D01*
X50572489Y-100511206D01*
X50624000Y-100500000D01*
X149376000Y-100500000D01*
X149443039Y-100519685D01*
G37*
%TD.AperFunction*%
%TD*%
%TA.AperFunction,Conductor*%
%TO.N,-VDC*%
G36*
X149443039Y-50519685D02*
G01*
X149488794Y-50572489D01*
X149500000Y-50624000D01*
X149500000Y-98376000D01*
X149480315Y-98443039D01*
X149427511Y-98488794D01*
X149376000Y-98500000D01*
X136124000Y-98500000D01*
X136056961Y-98480315D01*
X136011206Y-98427511D01*
X136000000Y-98376000D01*
X136000000Y-95124000D01*
X136019685Y-95056961D01*
X136072489Y-95011206D01*
X136124000Y-95000000D01*
X143500000Y-95000000D01*
X143500000Y-56000000D01*
X136500000Y-56000000D01*
X136500000Y-62876000D01*
X136480315Y-62943039D01*
X136427511Y-62988794D01*
X136376000Y-63000000D01*
X132624000Y-63000000D01*
X132556961Y-62980315D01*
X132511206Y-62927511D01*
X132500000Y-62876000D01*
X132500000Y-56000000D01*
X116500000Y-56000000D01*
X116500000Y-62876000D01*
X116480315Y-62943039D01*
X116427511Y-62988794D01*
X116376000Y-63000000D01*
X112624000Y-63000000D01*
X112556961Y-62980315D01*
X112511206Y-62927511D01*
X112500000Y-62876000D01*
X112500000Y-50624000D01*
X112519685Y-50556961D01*
X112572489Y-50511206D01*
X112624000Y-50500000D01*
X149376000Y-50500000D01*
X149443039Y-50519685D01*
G37*
%TD.AperFunction*%
%TD*%
M02*
