%TF.GenerationSoftware,KiCad,Pcbnew,(6.0.0)*%
%TF.CreationDate,2022-01-15T19:35:22+01:00*%
%TF.ProjectId,zenquito,7a656e71-7569-4746-9f2e-6b696361645f,1*%
%TF.SameCoordinates,Original*%
%TF.FileFunction,Copper,L1,Top*%
%TF.FilePolarity,Positive*%
%FSLAX46Y46*%
G04 Gerber Fmt 4.6, Leading zero omitted, Abs format (unit mm)*
G04 Created by KiCad (PCBNEW (6.0.0)) date 2022-01-15 19:35:22*
%MOMM*%
%LPD*%
G01*
G04 APERTURE LIST*
G04 Aperture macros list*
%AMRoundRect*
0 Rectangle with rounded corners*
0 $1 Rounding radius*
0 $2 $3 $4 $5 $6 $7 $8 $9 X,Y pos of 4 corners*
0 Add a 4 corners polygon primitive as box body*
4,1,4,$2,$3,$4,$5,$6,$7,$8,$9,$2,$3,0*
0 Add four circle primitives for the rounded corners*
1,1,$1+$1,$2,$3*
1,1,$1+$1,$4,$5*
1,1,$1+$1,$6,$7*
1,1,$1+$1,$8,$9*
0 Add four rect primitives between the rounded corners*
20,1,$1+$1,$2,$3,$4,$5,0*
20,1,$1+$1,$4,$5,$6,$7,0*
20,1,$1+$1,$6,$7,$8,$9,0*
20,1,$1+$1,$8,$9,$2,$3,0*%
G04 Aperture macros list end*
%TA.AperFunction,ComponentPad*%
%ADD10RoundRect,0.250001X-0.799999X-0.799999X0.799999X-0.799999X0.799999X0.799999X-0.799999X0.799999X0*%
%TD*%
%TA.AperFunction,ComponentPad*%
%ADD11O,1.200000X1.600000*%
%TD*%
%TA.AperFunction,ComponentPad*%
%ADD12O,1.200000X1.200000*%
%TD*%
%TA.AperFunction,ComponentPad*%
%ADD13R,2.500000X4.500000*%
%TD*%
%TA.AperFunction,ComponentPad*%
%ADD14O,2.500000X4.500000*%
%TD*%
%TA.AperFunction,ComponentPad*%
%ADD15C,2.400000*%
%TD*%
%TA.AperFunction,ComponentPad*%
%ADD16O,2.400000X2.400000*%
%TD*%
%TA.AperFunction,ComponentPad*%
%ADD17C,1.440000*%
%TD*%
%TA.AperFunction,ComponentPad*%
%ADD18R,1.500000X1.500000*%
%TD*%
%TA.AperFunction,ComponentPad*%
%ADD19C,1.500000*%
%TD*%
%TA.AperFunction,ComponentPad*%
%ADD20R,1.600000X1.600000*%
%TD*%
%TA.AperFunction,ComponentPad*%
%ADD21C,1.600000*%
%TD*%
%TA.AperFunction,ComponentPad*%
%ADD22RoundRect,0.249999X-1.950001X-1.950001X1.950001X-1.950001X1.950001X1.950001X-1.950001X1.950001X0*%
%TD*%
G04 APERTURE END LIST*
D10*
%TO.P,J4,1*%
%TO.N,Net-(J4-Pad1)*%
X90000000Y-97000000D03*
%TD*%
%TO.P,J5,1*%
%TO.N,GND*%
X90000000Y-102500000D03*
%TD*%
D11*
%TO.P,Q3,1*%
%TO.N,Net-(Q1-Pad3)*%
X73000000Y-82500000D03*
D12*
%TO.P,Q3,2*%
%TO.N,Net-(Q3-Pad2)*%
X75540000Y-79960000D03*
%TO.P,Q3,3*%
%TO.N,Net-(Q3-Pad3)*%
X73000000Y-77420000D03*
%TD*%
D11*
%TO.P,Q4,1*%
%TO.N,Net-(Q2-Pad3)*%
X126460000Y-82500000D03*
D12*
%TO.P,Q4,2*%
%TO.N,Net-(Q4-Pad2)*%
X129000000Y-79960000D03*
%TO.P,Q4,3*%
%TO.N,Net-(Q4-Pad3)*%
X126460000Y-77420000D03*
%TD*%
D13*
%TO.P,Q5,1*%
%TO.N,Net-(Q5-Pad1)*%
X60000000Y-60000000D03*
D14*
%TO.P,Q5,2*%
%TO.N,/OUT*%
X65450000Y-60000000D03*
%TO.P,Q5,3*%
%TO.N,+VDC*%
X70900000Y-60000000D03*
%TD*%
D13*
%TO.P,Q6,1*%
%TO.N,Net-(Q6-Pad1)*%
X109100000Y-60000000D03*
D14*
%TO.P,Q6,2*%
%TO.N,-VDC*%
X114550000Y-60000000D03*
%TO.P,Q6,3*%
%TO.N,/OUT*%
X120000000Y-60000000D03*
%TD*%
D13*
%TO.P,Q8,1*%
%TO.N,Net-(Q8-Pad1)*%
X129100000Y-60000000D03*
D14*
%TO.P,Q8,2*%
%TO.N,-VDC*%
X134550000Y-60000000D03*
%TO.P,Q8,3*%
%TO.N,/OUT*%
X140000000Y-60000000D03*
%TD*%
D15*
%TO.P,R1,1*%
%TO.N,Net-(J4-Pad1)*%
X95000000Y-90000000D03*
D16*
%TO.P,R1,2*%
%TO.N,GND*%
X95000000Y-102700000D03*
%TD*%
D15*
%TO.P,R3,1*%
%TO.N,Net-(J4-Pad1)*%
X114300000Y-97000000D03*
D16*
%TO.P,R3,2*%
%TO.N,Net-(C6-Pad1)*%
X127000000Y-97000000D03*
%TD*%
D15*
%TO.P,R4,1*%
%TO.N,+VDC*%
X53300000Y-90000000D03*
D16*
%TO.P,R4,2*%
%TO.N,Net-(Q1-Pad3)*%
X66000000Y-90000000D03*
%TD*%
D15*
%TO.P,R5,1*%
%TO.N,Net-(Q2-Pad3)*%
X134300000Y-90000000D03*
D16*
%TO.P,R5,2*%
%TO.N,-VDC*%
X147000000Y-90000000D03*
%TD*%
D15*
%TO.P,R8,1*%
%TO.N,Net-(R10-Pad2)*%
X106000000Y-90000000D03*
D16*
%TO.P,R8,2*%
%TO.N,GND*%
X106000000Y-102700000D03*
%TD*%
D15*
%TO.P,R10,1*%
%TO.N,Net-(Q3-Pad2)*%
X81300000Y-80000000D03*
D16*
%TO.P,R10,2*%
%TO.N,Net-(R10-Pad2)*%
X94000000Y-80000000D03*
%TD*%
D15*
%TO.P,R11,1*%
%TO.N,Net-(R10-Pad2)*%
X106000000Y-80000000D03*
D16*
%TO.P,R11,2*%
%TO.N,Net-(Q4-Pad2)*%
X118700000Y-80000000D03*
%TD*%
D15*
%TO.P,R12,1*%
%TO.N,Net-(Q4-Pad3)*%
X134300000Y-80000000D03*
D16*
%TO.P,R12,2*%
%TO.N,-VDC*%
X147000000Y-80000000D03*
%TD*%
D15*
%TO.P,R14,1*%
%TO.N,Net-(Q6-Pad1)*%
X109000000Y-70000000D03*
D16*
%TO.P,R14,2*%
%TO.N,Net-(Q4-Pad2)*%
X121700000Y-70000000D03*
%TD*%
D17*
%TO.P,RV2,1*%
%TO.N,Net-(R6-Pad2)*%
X112920000Y-90000000D03*
%TO.P,RV2,2*%
%TO.N,Net-(Q2-Pad1)*%
X115460000Y-90000000D03*
%TO.P,RV2,3*%
X118000000Y-90000000D03*
%TD*%
D15*
%TO.P,R7,1*%
%TO.N,Net-(R6-Pad2)*%
X100000000Y-90000000D03*
D16*
%TO.P,R7,2*%
%TO.N,GND*%
X100000000Y-102700000D03*
%TD*%
D18*
%TO.P,Q1,1*%
%TO.N,Net-(Q1-Pad1)*%
X75540000Y-90000000D03*
D19*
%TO.P,Q1,2*%
%TO.N,Net-(C5-Pad2)*%
X73000000Y-90000000D03*
%TO.P,Q1,3*%
%TO.N,Net-(Q1-Pad3)*%
X70460000Y-90000000D03*
%TD*%
D15*
%TO.P,R2,1*%
%TO.N,Net-(C5-Pad2)*%
X73000000Y-97000000D03*
D16*
%TO.P,R2,2*%
%TO.N,Net-(J4-Pad1)*%
X85700000Y-97000000D03*
%TD*%
D15*
%TO.P,R9,1*%
%TO.N,+VDC*%
X53000000Y-80000000D03*
D16*
%TO.P,R9,2*%
%TO.N,Net-(Q3-Pad3)*%
X65700000Y-80000000D03*
%TD*%
D20*
%TO.P,C2,1*%
%TO.N,GND*%
X145000000Y-102000000D03*
D21*
%TO.P,C2,2*%
%TO.N,-VDC*%
X145000000Y-97000000D03*
%TD*%
%TO.P,C3,1*%
%TO.N,+VDC*%
X62000000Y-97000000D03*
%TO.P,C3,2*%
%TO.N,GND*%
X62000000Y-102000000D03*
%TD*%
D17*
%TO.P,RV1,1*%
%TO.N,Net-(Q1-Pad1)*%
X82000000Y-90000000D03*
%TO.P,RV1,2*%
X84540000Y-90000000D03*
%TO.P,RV1,3*%
%TO.N,Net-(R6-Pad2)*%
X87080000Y-90000000D03*
%TD*%
D18*
%TO.P,Q2,1*%
%TO.N,Net-(Q2-Pad1)*%
X124460000Y-90000000D03*
D19*
%TO.P,Q2,2*%
%TO.N,Net-(C6-Pad1)*%
X127000000Y-90000000D03*
%TO.P,Q2,3*%
%TO.N,Net-(Q2-Pad3)*%
X129540000Y-90000000D03*
%TD*%
D22*
%TO.P,J3,1*%
%TO.N,-VDC*%
X146500000Y-70000000D03*
%TD*%
%TO.P,J6,1*%
%TO.N,/OUT*%
X100000000Y-60000000D03*
%TD*%
D15*
%TO.P,R13,1*%
%TO.N,Net-(Q5-Pad1)*%
X60000000Y-70000000D03*
D16*
%TO.P,R13,2*%
%TO.N,Net-(Q3-Pad2)*%
X72700000Y-70000000D03*
%TD*%
D15*
%TO.P,R16,1*%
%TO.N,Net-(Q8-Pad1)*%
X127300000Y-70000000D03*
D16*
%TO.P,R16,2*%
%TO.N,Net-(Q4-Pad2)*%
X140000000Y-70000000D03*
%TD*%
D15*
%TO.P,R15,1*%
%TO.N,Net-(Q7-Pad1)*%
X80000000Y-70000000D03*
D16*
%TO.P,R15,2*%
%TO.N,Net-(Q3-Pad2)*%
X92700000Y-70000000D03*
%TD*%
D13*
%TO.P,Q7,1*%
%TO.N,Net-(Q7-Pad1)*%
X80000000Y-60000000D03*
D14*
%TO.P,Q7,2*%
%TO.N,/OUT*%
X85450000Y-60000000D03*
%TO.P,Q7,3*%
%TO.N,+VDC*%
X90900000Y-60000000D03*
%TD*%
D21*
%TO.P,C5,1*%
%TO.N,GND*%
X68000000Y-102000000D03*
%TO.P,C5,2*%
%TO.N,Net-(C5-Pad2)*%
X68000000Y-97000000D03*
%TD*%
D22*
%TO.P,J2,1*%
%TO.N,GND*%
X113000000Y-104000000D03*
%TD*%
%TO.P,J1,1*%
%TO.N,+VDC*%
X53500000Y-70000000D03*
%TD*%
D21*
%TO.P,C6,1*%
%TO.N,Net-(C6-Pad1)*%
X132000000Y-97000000D03*
%TO.P,C6,2*%
%TO.N,GND*%
X132000000Y-102000000D03*
%TD*%
D20*
%TO.P,C1,1*%
%TO.N,+VDC*%
X55000000Y-97000000D03*
D21*
%TO.P,C1,2*%
%TO.N,GND*%
X55000000Y-102000000D03*
%TD*%
%TO.P,C4,1*%
%TO.N,GND*%
X138000000Y-102000000D03*
%TO.P,C4,2*%
%TO.N,-VDC*%
X138000000Y-97000000D03*
%TD*%
D15*
%TO.P,R6,1*%
%TO.N,/OUT*%
X100000000Y-67300000D03*
D16*
%TO.P,R6,2*%
%TO.N,Net-(R6-Pad2)*%
X100000000Y-80000000D03*
%TD*%
M02*
